<svg id="Layer_1" data-name="Layer 1" xmlns="http://www.w3.org/2000/svg" xmlns:xlink="http://www.w3.org/1999/xlink" viewBox="0 0 4000 4000"><defs><style>.cls-1{fill:url(#Безымянный_градиент_90);}</style><linearGradient id="Безымянный_градиент_90" x1="1077.59" y1="3785.75" x2="3040.71" y2="385.52" gradientUnits="userSpaceOnUse"><stop offset="0" stop-color="#ecff2a"/><stop offset="0.13" stop-color="#eaff2c"/><stop offset="0.21" stop-color="#e2fd34"/><stop offset="0.27" stop-color="#d4fc41"/><stop offset="0.32" stop-color="#c0f953"/><stop offset="0.37" stop-color="#a7f56b"/><stop offset="0.41" stop-color="#87f189"/><stop offset="0.45" stop-color="#62ebac"/><stop offset="0.49" stop-color="#38e5d4"/><stop offset="0.5" stop-color="#29e3e2"/><stop offset="0.51" stop-color="#27dce3"/><stop offset="0.54" stop-color="#1eb3ea" stop-opacity="0.97"/><stop offset="0.58" stop-color="#168fef" stop-opacity="0.95"/><stop offset="0.63" stop-color="#0f70f4" stop-opacity="0.94"/><stop offset="0.68" stop-color="#0a58f8" stop-opacity="0.92"/><stop offset="0.73" stop-color="#0545fb" stop-opacity="0.91"/><stop offset="0.79" stop-color="#0237fd" stop-opacity="0.91"/><stop offset="0.86" stop-color="#012fff" stop-opacity="0.9"/><stop offset="1" stop-color="#002dff" stop-opacity="0.9"/></linearGradient></defs><title>Монтажная область 3</title><path class="cls-1" d="M3705.12,3408.22A277.69,277.69,0,0,0,3749,3258.53c0-149.26-116.16-284.35-320.8-298.08a65.45,65.45,0,0,0-8.85-1.66c-273.62-280.6-399.09-960.27-324.67-1368.67,249-19.42,424.09-165.67,489.51-415.39,28.91-110.39-22.38-195.47-128.54-215.66-52.05-9.92-86.64-40.81-105.75-94.45-.62-1.71-1.29-3.39-2-5C3247.43,637,3073.55,609.38,2958.28,599.17c0-.42.43-1.31,0-1.29-41.67,2.41-93.33,2.23-65.74-28.37,73.59-81.61,86.51-120.16,95-149.84,18.72-65.56-50.84-108.37-102.92-99.78-286.25,47.27-566.85,302.93-715.15,649.53-19.38,45.31-52.34,123-93.55,222.81C2023.55,1066.49,1917,763.54,1609.81,604c-135.27-70.28-268.23-92.36-407.19-83.73-116,7.06-357.11,21.69-487.11,313.12-4,4-35.61,30.76-172.49,45.42-84,9-161.86,8.27-162.64,8.26h-.78a66.58,66.58,0,0,0-66.55,65.69c-4.86,377.66,165.38,542.15,293.07,612.31.15.1.32.23.49.33,76.88,46.31,174,57.2,264.15,57.2,48.89,0,93.38-3.16,126.55-6.49,25,157.86,71.49,796.45-244.67,1344.53-202.93,15.07-317.19,150.18-317.19,297.91a277.77,277.77,0,0,0,43.85,149.69S551,3541.3,770.08,3541.3h715.14a66.54,66.54,0,1,0,0-133.08H748.11c-124,0-179.56-75.21-179.56-149.69,0-94.83,82.83-161.79,210.21-165.8,58.41,13,129.14,46.1,158.2,128.94a66.56,66.56,0,1,0,125.61-44.06c-30-85.48-90.31-150-173.69-187.88,296.27-541.12,273.87-1164.71,241.57-1378.18-6-39.41-21.45-88.84-24.52-95.71a66.51,66.51,0,0,0-71.49-38.46c-57.85,9.47-215.3,26-324.34-10.54-3.17-1.07-6.22-2.18-9.19-3.31-119.26-52-198.18-154.15-233.52-299.92,43.2-9.8,105.79-45,146.5-160,125.61-19.9,196.89-56.74,222.59-114.68C897.86,750.41,985.33,694.14,1082,670.06c50-12.45,178.81-29.91,288.33,43.43,30.64,20.51,55.3,54.1,70.13,97,24.76,71.63,6.86,151.68-50.41,225.38-148.42,191-185.89,288.48-172.19,415.23,8.64,79.89,52.19,145.4,122.62,184.45,96.76,53.66,223.49,55.44,320.19-4.24,104.13-64.29,164.45-178.69,193.7-371.56.06-.35.15-.69.22-1-25.29-64.73-65.39-153.65-114.69-215.59,3.84,53.73,11.62,121.5-4.2,193.24-31.82,144-52,216.27-133,275.13-62.64,45.51-145.46,36.65-197.69,7.67-32.43-18-50.87-45.7-54.83-82.35-7.42-68.54.25-133,145-319.26,91.16-117.33,120-266.14,50.63-397.4a422.26,422.26,0,0,1,54,32.84v0s92.81,58.78,189.93,183.9c28.15,36.26,126.88,166.37,214.84,430.35C1803.3,1867,1509,2652.4,1509,2971.45c0,314.22,255.63,569.85,569.86,569.85s569.86-255.63,569.86-569.85c0-172.73-102.92-541.11-305.88-1094.94-46.39-126.55-93.45-250.19-137.55-363L2137.64,1706c177.78,466.13,377.93,1048.06,377.93,1265.5,0,240.82-195.91,436.77-436.73,436.77s-436.75-195.95-436.75-436.77c0-337.21,378.51-1288.32,505.87-1602.74a1.76,1.76,0,0,1-.09-.2c71.05-175.42,126.12-305,144-346.73,94.37-220.62,285.13-458.92,517.5-544.47C2635.7,643.6,2697.88,730.7,2761.42,730.7h172.07c107,8.81,218.63,20.84,292,181.35,28.82,78.68,82.79,135.16,154.72,163.27-15.55,39-27.58,106,49.74,141-58.54,138.22-186.85,267-464.75,239.26A66.55,66.55,0,0,0,2952,1588c2.66.27,5.27.41,7.94.66-34.3,212.29-21.85,490.15,34.77,755,58.85,275.28,158.43,504.31,284.41,657.67-71.31,38.86-123.25,98.92-150.37,176.2-15.26,43.47,17.21,88.59,62.78,88.59a66.61,66.61,0,0,0,62.82-44.53c28.9-82.42,99-115.62,157.3-128.72,275.13,12.9,263.23,315.27,24.7,315.27H2673.08a66.54,66.54,0,1,0,0,133.08h763.24C3646.81,3541.3,3705.12,3408.22,3705.12,3408.22Z"/></svg>